<svg xmlns="http://www.w3.org/2000/svg" viewBox="0 0 120 80">
  <rect x="2" y="2" width="116" height="76" rx="4" fill="#FFFFFF" stroke="#231F20" stroke-width="2"/>
  <!-- GPIO pin rows -->
  <rect x="20" y="30" width="12" height="8" rx="1" fill="#0067B9" stroke="#231F20" stroke-width="0.5"/>
  <rect x="36" y="30" width="12" height="8" rx="1" fill="#0067B9" stroke="#231F20" stroke-width="0.5"/>
  <rect x="52" y="30" width="12" height="8" rx="1" fill="#FFFFFF" stroke="#231F20" stroke-width="0.5"/>
  <rect x="68" y="30" width="12" height="8" rx="1" fill="#0067B9" stroke="#231F20" stroke-width="0.5"/>
  <rect x="84" y="30" width="12" height="8" rx="1" fill="#FFFFFF" stroke="#231F20" stroke-width="0.5"/>
  <rect x="20" y="46" width="12" height="8" rx="1" fill="#FFFFFF" stroke="#231F20" stroke-width="0.5"/>
  <rect x="36" y="46" width="12" height="8" rx="1" fill="#0067B9" stroke="#231F20" stroke-width="0.5"/>
  <rect x="52" y="46" width="12" height="8" rx="1" fill="#0067B9" stroke="#231F20" stroke-width="0.5"/>
  <rect x="68" y="46" width="12" height="8" rx="1" fill="#FFFFFF" stroke="#231F20" stroke-width="0.5"/>
  <rect x="84" y="46" width="12" height="8" rx="1" fill="#0067B9" stroke="#231F20" stroke-width="0.5"/>
  <!-- Bidirectional arrows -->
  <line x1="26" y1="60" x2="26" y2="68" stroke="#231F20" stroke-width="1"/>
  <polygon points="23,66 26,70 29,66" fill="#231F20"/>
  <polygon points="23,62 26,58 29,62" fill="#231F20"/>
  <!-- Label -->
  <text x="60" y="22" text-anchor="middle" font-family="Arial, sans-serif" font-size="13" font-weight="bold" fill="#231F20">GPIO</text>
</svg>
