<svg xmlns="http://www.w3.org/2000/svg" viewBox="0 0 120 80">
  <rect x="2" y="2" width="116" height="76" rx="4" fill="#FFFFFF" stroke="#231F20" stroke-width="2"/>
  <!-- H-bridge -->
  <!-- Top rail -->
  <line x1="28" y1="20" x2="92" y2="20" stroke="#C8102E" stroke-width="1.5"/>
  <!-- Bottom rail -->
  <line x1="28" y1="60" x2="92" y2="60" stroke="#231F20" stroke-width="1.5"/>
  <!-- Left switches -->
  <line x1="36" y1="20" x2="36" y2="32" stroke="#231F20" stroke-width="1.5"/>
  <line x1="32" y1="32" x2="40" y2="38" stroke="#231F20" stroke-width="2"/>
  <circle cx="36" cy="40" r="2" fill="#231F20"/>
  <line x1="36" y1="42" x2="36" y2="48" stroke="#231F20" stroke-width="1.5"/>
  <line x1="32" y1="48" x2="40" y2="54" stroke="#231F20" stroke-width="2"/>
  <line x1="36" y1="56" x2="36" y2="60" stroke="#231F20" stroke-width="1.5"/>
  <!-- Right switches -->
  <line x1="84" y1="20" x2="84" y2="32" stroke="#231F20" stroke-width="1.5"/>
  <line x1="80" y1="32" x2="88" y2="38" stroke="#231F20" stroke-width="2"/>
  <circle cx="84" cy="40" r="2" fill="#231F20"/>
  <line x1="84" y1="42" x2="84" y2="48" stroke="#231F20" stroke-width="1.5"/>
  <line x1="80" y1="48" x2="88" y2="54" stroke="#231F20" stroke-width="2"/>
  <line x1="84" y1="56" x2="84" y2="60" stroke="#231F20" stroke-width="1.5"/>
  <!-- Motor across bridge -->
  <line x1="36" y1="40" x2="52" y2="40" stroke="#231F20" stroke-width="1.5"/>
  <circle cx="60" cy="40" r="10" fill="none" stroke="#231F20" stroke-width="1.5"/>
  <text x="60" y="44" text-anchor="middle" font-family="Arial, sans-serif" font-size="10" font-weight="bold" fill="#231F20">M</text>
  <line x1="70" y1="40" x2="84" y2="40" stroke="#231F20" stroke-width="1.5"/>
  <!-- Label -->
  <text x="60" y="14" text-anchor="middle" font-family="Arial, sans-serif" font-size="10" font-weight="bold" fill="#231F20">Motor Driver</text>
</svg>
