<svg xmlns="http://www.w3.org/2000/svg" viewBox="0 0 120 80">
  <rect x="2" y="2" width="116" height="76" rx="4" fill="#FFFFFF" stroke="#231F20" stroke-width="2"/>
  <!-- Parallel data (left) -->
  <line x1="12" y1="26" x2="38" y2="26" stroke="#0067B9" stroke-width="1"/>
  <line x1="12" y1="34" x2="38" y2="34" stroke="#0067B9" stroke-width="1"/>
  <line x1="12" y1="42" x2="38" y2="42" stroke="#0067B9" stroke-width="1"/>
  <line x1="12" y1="50" x2="38" y2="50" stroke="#0067B9" stroke-width="1"/>
  <line x1="12" y1="58" x2="38" y2="58" stroke="#0067B9" stroke-width="1"/>
  <!-- SerDes block -->
  <rect x="38" y="20" width="44" height="44" rx="2" fill="none" stroke="#231F20" stroke-width="1.5"/>
  <text x="60" y="46" text-anchor="middle" font-family="Arial, sans-serif" font-size="8" fill="#231F20">SerDes</text>
  <!-- High-speed serial lanes (right) -->
  <line x1="82" y1="32" x2="108" y2="32" stroke="#0067B9" stroke-width="2"/>
  <line x1="82" y1="42" x2="108" y2="42" stroke="#0067B9" stroke-width="2"/>
  <line x1="82" y1="52" x2="108" y2="52" stroke="#0067B9" stroke-width="2"/>
  <polygon points="103,29 108,32 103,35" fill="#0067B9"/>
  <polygon points="103,39 108,42 103,45" fill="#0067B9"/>
  <polygon points="103,49 108,52 103,55" fill="#0067B9"/>
  <!-- Label -->
  <text x="60" y="14" text-anchor="middle" font-family="Arial, sans-serif" font-size="10" font-weight="bold" fill="#231F20">JESD204</text>
</svg>
