<svg xmlns="http://www.w3.org/2000/svg" viewBox="0 0 120 80">
  <rect x="2" y="2" width="116" height="76" rx="4" fill="#FFFFFF" stroke="#231F20" stroke-width="2"/>
  <!-- Noisy clock input (left) -->
  <path d="M 10 48 L 14 48 L 15 30 L 21 30 L 22 48 L 26 48 L 28 30 L 33 30 L 34 48" fill="none" stroke="#C8102E" stroke-width="1.5"/>
  <!-- Arrow -->
  <line x1="38" y1="40" x2="50" y2="40" stroke="#231F20" stroke-width="1.5"/>
  <polygon points="47,37 52,40 47,43" fill="#231F20"/>
  <!-- Clean block -->
  <rect x="52" y="30" width="20" height="20" rx="2" fill="none" stroke="#0067B9" stroke-width="1.5"/>
  <!-- Arrow -->
  <line x1="72" y1="40" x2="80" y2="40" stroke="#231F20" stroke-width="1.5"/>
  <polygon points="77,37 82,40 77,43" fill="#231F20"/>
  <!-- Clean clock output (right) -->
  <path d="M 82 48 L 88 48 L 88 30 L 94 30 L 94 48 L 100 48 L 100 30 L 106 30 L 106 48 L 112 48" fill="none" stroke="#007A33" stroke-width="1.5"/>
  <!-- Label -->
  <text x="60" y="20" text-anchor="middle" font-family="Arial, sans-serif" font-size="10" font-weight="bold" fill="#231F20">Jitter Clean</text>
</svg>
