<svg xmlns="http://www.w3.org/2000/svg" viewBox="0 0 120 80">
  <rect x="2" y="2" width="116" height="76" rx="4" fill="#FFFFFF" stroke="#231F20" stroke-width="2"/>
  <!-- Vin input -->
  <line x1="12" y1="40" x2="35" y2="40" stroke="#0067B9" stroke-width="1.5"/>
  <polygon points="32,37 37,40 32,43" fill="#0067B9"/>
  <text x="20" y="35" font-family="Arial, sans-serif" font-size="8" fill="#58595B">Vin</text>
  <!-- Internal block -->
  <rect x="38" y="26" width="44" height="28" rx="2" fill="none" stroke="#231F20" stroke-width="1.5"/>
  <!-- Dropout arrow -->
  <line x1="48" y1="36" x2="72" y2="36" stroke="#0067B9" stroke-width="1"/>
  <line x1="48" y1="44" x2="72" y2="44" stroke="#0067B9" stroke-width="1"/>
  <polygon points="68,33 74,36 68,39" fill="#0067B9"/>
  <!-- Vout output -->
  <line x1="82" y1="40" x2="108" y2="40" stroke="#0067B9" stroke-width="1.5"/>
  <polygon points="103,37 108,40 103,43" fill="#0067B9"/>
  <text x="94" y="35" font-family="Arial, sans-serif" font-size="8" fill="#58595B">Vout</text>
  <!-- GND -->
  <line x1="60" y1="54" x2="60" y2="66" stroke="#231F20" stroke-width="1.5"/>
  <line x1="53" y1="66" x2="67" y2="66" stroke="#231F20" stroke-width="1.5"/>
  <line x1="55" y1="69" x2="65" y2="69" stroke="#231F20" stroke-width="1"/>
  <line x1="57" y1="72" x2="63" y2="72" stroke="#231F20" stroke-width="0.5"/>
  <!-- Label -->
  <text x="60" y="18" text-anchor="middle" font-family="Arial, sans-serif" font-size="13" font-weight="bold" fill="#231F20">LDO</text>
</svg>
