<svg xmlns="http://www.w3.org/2000/svg" viewBox="0 0 120 80">
  <rect x="2" y="2" width="116" height="76" rx="4" fill="#FFFFFF" stroke="#231F20" stroke-width="2"/>
  <!-- Input clock -->
  <line x1="12" y1="40" x2="35" y2="40" stroke="#0067B9" stroke-width="1.5"/>
  <!-- Fanout node -->
  <circle cx="42" cy="40" r="4" fill="#0067B9"/>
  <!-- Multiple outputs -->
  <line x1="46" y1="40" x2="46" y2="18" stroke="#0067B9" stroke-width="1.5"/>
  <line x1="46" y1="18" x2="108" y2="18" stroke="#0067B9" stroke-width="1.5"/>
  <polygon points="103,15 108,18 103,21" fill="#0067B9"/>
  <line x1="46" y1="40" x2="108" y2="30" stroke="#0067B9" stroke-width="1.5"/>
  <polygon points="103,27 108,30 103,33" fill="#0067B9"/>
  <line x1="46" y1="40" x2="108" y2="40" stroke="#0067B9" stroke-width="1.5"/>
  <polygon points="103,37 108,40 103,43" fill="#0067B9"/>
  <line x1="46" y1="40" x2="108" y2="50" stroke="#0067B9" stroke-width="1.5"/>
  <polygon points="103,47 108,50 103,53" fill="#0067B9"/>
  <line x1="46" y1="40" x2="46" y2="62" stroke="#0067B9" stroke-width="1.5"/>
  <line x1="46" y1="62" x2="108" y2="62" stroke="#0067B9" stroke-width="1.5"/>
  <polygon points="103,59 108,62 103,65" fill="#0067B9"/>
  <!-- Label -->
  <text x="78" y="44" font-family="Arial, sans-serif" font-size="8" fill="#58595B">CLK</text>
</svg>
