<svg xmlns="http://www.w3.org/2000/svg" viewBox="0 0 120 80">
  <rect x="2" y="2" width="116" height="76" rx="4" fill="#FFFFFF" stroke="#231F20" stroke-width="2"/>
  <!-- Antenna array elements (left side) -->
  <line x1="12" y1="16" x2="28" y2="16" stroke="#0067B9" stroke-width="1.5"/>
  <line x1="12" y1="28" x2="28" y2="28" stroke="#0067B9" stroke-width="1.5"/>
  <line x1="12" y1="40" x2="28" y2="40" stroke="#0067B9" stroke-width="1.5"/>
  <line x1="12" y1="52" x2="28" y2="52" stroke="#0067B9" stroke-width="1.5"/>
  <line x1="12" y1="64" x2="28" y2="64" stroke="#0067B9" stroke-width="1.5"/>
  <!-- Phase shift arrows converging -->
  <line x1="28" y1="16" x2="50" y2="40" stroke="#0067B9" stroke-width="1"/>
  <line x1="28" y1="28" x2="50" y2="40" stroke="#0067B9" stroke-width="1"/>
  <line x1="28" y1="40" x2="50" y2="40" stroke="#0067B9" stroke-width="1"/>
  <line x1="28" y1="52" x2="50" y2="40" stroke="#0067B9" stroke-width="1"/>
  <line x1="28" y1="64" x2="50" y2="40" stroke="#0067B9" stroke-width="1"/>
  <!-- Beam output (right side) -->
  <path d="M 55 40 L 75 28 L 108 28 L 108 52 L 75 52 Z" fill="none" stroke="#0067B9" stroke-width="1.5"/>
  <!-- Beam radiation lines -->
  <line x1="108" y1="34" x2="115" y2="30" stroke="#0067B9" stroke-width="1"/>
  <line x1="108" y1="40" x2="116" y2="40" stroke="#0067B9" stroke-width="1"/>
  <line x1="108" y1="46" x2="115" y2="50" stroke="#0067B9" stroke-width="1"/>
  <!-- Label -->
  <text x="82" y="44" text-anchor="middle" font-family="Arial, sans-serif" font-size="9" font-weight="bold" fill="#231F20">BF</text>
</svg>
