<svg xmlns="http://www.w3.org/2000/svg" viewBox="0 0 120 80">
  <rect x="2" y="2" width="116" height="76" rx="4" fill="#FFFFFF" stroke="#231F20" stroke-width="2"/>
  <!-- REF input -->
  <text x="14" y="30" font-family="Arial, sans-serif" font-size="8" fill="#58595B">REF</text>
  <line x1="12" y1="34" x2="38" y2="34" stroke="#0067B9" stroke-width="1.5"/>
  <polygon points="35,31 40,34 35,37" fill="#0067B9"/>
  <!-- FB input -->
  <text x="14" y="56" font-family="Arial, sans-serif" font-size="8" fill="#58595B">FB</text>
  <line x1="12" y1="60" x2="38" y2="60" stroke="#0067B9" stroke-width="1.5"/>
  <polygon points="35,57 40,60 35,63" fill="#0067B9"/>
  <!-- Phase detector block -->
  <rect x="40" y="26" width="36" height="42" rx="2" fill="none" stroke="#231F20" stroke-width="1.5"/>
  <text x="58" y="51" text-anchor="middle" font-family="Arial, sans-serif" font-size="9" fill="#231F20">Φ</text>
  <!-- UP output -->
  <line x1="76" y1="34" x2="108" y2="34" stroke="#0067B9" stroke-width="1.5"/>
  <polygon points="103,31 108,34 103,37" fill="#0067B9"/>
  <text x="96" y="30" font-family="Arial, sans-serif" font-size="8" fill="#58595B">UP</text>
  <!-- DN output -->
  <line x1="76" y1="60" x2="108" y2="60" stroke="#0067B9" stroke-width="1.5"/>
  <polygon points="103,57 108,60 103,63" fill="#0067B9"/>
  <text x="96" y="56" font-family="Arial, sans-serif" font-size="8" fill="#58595B">DN</text>
  <!-- Label -->
  <text x="60" y="18" text-anchor="middle" font-family="Arial, sans-serif" font-size="12" font-weight="bold" fill="#231F20">PFD</text>
</svg>
